<?xml version="1.0" encoding="utf-8"?>
<!-- Generator: Adobe Illustrator 25.0.0, SVG Export Plug-In . SVG Version: 6.00 Build 0)  -->
<svg version="1.1" id="Calque_1" xmlns="http://www.w3.org/2000/svg" xmlns:xlink="http://www.w3.org/1999/xlink" x="0px" y="0px"
	 viewBox="0 0 1000 1000" style="enable-background:new 0 0 1000 1000;" xml:space="preserve">
<style type="text/css">
	.st0{fill:#1CBCD6;}
</style>
<g>
	<g>
		<g>
			<ellipse class="st0" cx="420.5" cy="192.7" rx="410.5" ry="182.7"/>
			<path class="st0" d="M515.6,863.8c-28.8-7.3-50.3-30.8-55.7-59.5c-13,0.6-26.1,0.9-39.4,0.9C193.8,805.2,10,723.5,10,622.5
				c0,42.1,0,70.3,0,139.7c0,101,183.8,182.7,410.5,182.7c32.6,0,64.2-1.9,94.6-5.1C502,916.4,501.3,887.5,515.6,863.8z"/>
			<path class="st0" d="M420.5,755.1c12.8,0,25.4-0.3,38-0.8v-21c0-35.1,24-65.3,57.5-73.6c-8.8-14.9-12-31.9-9.9-48.3
				c-27.6,2.6-56.2,4-85.5,4C193.8,615.4,10,533.7,10,432.7c0,42.1,0,70.3,0,139.7C10,673.3,193.8,755.1,420.5,755.1z"/>
			<path class="st0" d="M420.5,565.3c40.5,0,79.7-2.7,116.7-7.6l30.7-30.7c14.7-14.7,34.1-22.2,53.7-22.2c13.2,0,26.4,3.4,38.3,10.4
				c8.7-33.1,38.6-56.6,73.4-56.6h56.9c1,0,2,0.2,3,0.3c24-23.2,37.7-49,37.7-76.2c0-37.1,0-75.7,0-139.7
				c0,100.9-183.8,182.7-410.5,182.7C193.7,425.6,10,343.8,10,242.8c0,42.1,0,70.3,0,139.7C10,483.5,193.8,565.3,420.5,565.3z"/>
		</g>
		<g>
			<path class="st0" d="M990,790.2v-56.9l-67.8-11.1c-4-16-10.3-31.1-18.6-45l39.5-56.3l-40.3-40.3l-55.6,40
				c-13.9-8.4-29-14.8-45.2-18.8l-11.8-67.4h-56.9l-11,67.2c-16.2,3.9-31.4,10.3-45.3,18.6l-55.4-39.6l-40.3,40.3l39,55.7
				c-8.5,14-14.9,29.2-18.9,45.5l-66.9,11.1v56.9l66.9,11.8c4,16.3,10.4,31.5,18.9,45.5l-39.5,55.2l40.3,40.3l55.8-39.1
				c14,8.4,29.2,14.7,45.3,18.7l11.2,67.2h56.9l12-67.4c16.1-4,31.2-10.5,45.1-18.9l56.2,39.4l40.2-40.3l-40.1-55.7
				c8.3-13.9,14.6-29,18.6-45.1L990,790.2z M762.2,841.6c-43.8,0-79.4-35.5-79.4-79.4c0-43.8,35.6-79.4,79.4-79.4
				c43.9,0,79.4,35.6,79.4,79.4C841.6,806.1,806.1,841.6,762.2,841.6z"/>
		</g>
	</g>
</g>
</svg>
