<?xml version="1.0" encoding="utf-8"?>
<!-- Generator: Adobe Illustrator 25.0.0, SVG Export Plug-In . SVG Version: 6.00 Build 0)  -->
<svg version="1.1"
	 id="svg2" sodipodi:docname="htmlcss.svg" xmlns:cc="http://creativecommons.org/ns#" xmlns:dc="http://purl.org/dc/elements/1.1/" xmlns:inkscape="http://www.inkscape.org/namespaces/inkscape" xmlns:rdf="http://www.w3.org/1999/02/22-rdf-syntax-ns#" xmlns:sodipodi="http://sodipodi.sourceforge.net/DTD/sodipodi-0.dtd" xmlns:svg="http://www.w3.org/2000/svg"
	 xmlns="http://www.w3.org/2000/svg" xmlns:xlink="http://www.w3.org/1999/xlink" x="0px" y="0px" viewBox="0 0 791.3 512"
	 style="enable-background:new 0 0 791.3 512;" xml:space="preserve">
<style type="text/css">
	.st0{fill:#1CBCD6;}
	.st1{fill:#FAFAFA;}
</style>
<sodipodi:namedview  bordercolor="#666666" borderopacity="1.0" fit-margin-bottom="0" fit-margin-left="0" fit-margin-right="0" fit-margin-top="0" id="base" inkscape:current-layer="layer1" inkscape:cx="-276.49014" inkscape:cy="244.10462" inkscape:document-units="px" inkscape:pageopacity="0.0" inkscape:pageshadow="2" inkscape:window-height="938" inkscape:window-maximized="1" inkscape:window-width="1280" inkscape:window-x="0" inkscape:window-y="31" inkscape:zoom="0.35" pagecolor="#ffffff" showgrid="false">
	</sodipodi:namedview>
<g id="layer1" transform="translate(-170.06157,-270.18109)" inkscape:groupmode="layer" inkscape:label="Calque 1">
	<g id="g3013" transform="translate(95.428571,270.18109)">
		<polygon id="polygon2989" class="st0" points="255.8,512 107.6,470.9 74.6,100.6 437.4,100.6 404.3,470.8 		"/>
		<polygon id="polygon2991" class="st0" points="376,447.2 404.3,130.9 256,130.9 256,480.5 		"/>
		<polygon id="polygon2993" class="st1" points="150.3,268.2 154.4,313.6 256,313.6 256,268.2 		"/>
		<polygon id="polygon2995" class="st1" points="142.1,176.3 146.3,221.7 256,221.7 256,176.3 255.8,176.3 		"/>
		<polygon id="polygon2997" class="st1" points="256,386.2 255.8,386.2 205.2,372.5 202,336.3 177.4,336.3 156.4,336.3 162.8,407.6 
			255.8,433.5 256,433.4 		"/>
		<path id="path2999" inkscape:connector-curvature="0" class="st0" d="M160,0h55v23h-32v23h32v23h-55V0z"/>
		<path id="path3001" inkscape:connector-curvature="0" class="st0" d="M226,0h55v20h-32v4h32v46h-55V49h32v-4h-32V0z"/>
		<path id="path3003" inkscape:connector-curvature="0" class="st0" d="M292,0h55v20h-32v4h32v46h-55V49h32v-4h-32V0z"/>
		<polygon id="polygon3005" class="st1" points="361.4,268.2 369.6,176.3 255.8,176.3 255.8,221.7 319.8,221.7 315.7,268.2 
			255.8,268.2 255.8,313.6 311.8,313.6 306.5,372.5 255.8,386.2 255.8,433.4 348.9,407.6 349.6,400 360.3,280.4 		"/>
	</g>
	<g id="g3054" transform="translate(524,270.18109)">
		<polygon id="polygon3028" class="st0" points="437.4,100.6 404.3,470.8 255.8,512 107.6,470.9 74.6,100.6 		"/>
		<polygon id="polygon3030" class="st0" points="256,480.5 376,447.2 404.3,130.9 256,130.9 		"/>
		<polygon id="polygon3032" class="st1" points="191.8,221.7 256,221.7 256,176.3 255.8,176.3 142.1,176.3 143.2,188.5 154.4,313.6 
			256,313.6 256,268.2 195.9,268.2 		"/>
		<polygon id="polygon3034" class="st1" points="202,336.3 177.4,336.3 156.4,336.3 162.8,407.6 255.8,433.5 256,433.4 256,386.2 
			255.8,386.2 205.2,372.5 		"/>
		<path id="path3036" inkscape:connector-curvature="0" class="st0" d="M108.4,0h23.1v22.8h21.1V0h23.1v69h-23.1V45.9h-21.1V69
			h-23.1L108.4,0L108.4,0z"/>
		<path id="path3038" inkscape:connector-curvature="0" class="st0" d="M206,22.9h-20.3V0h63.7v22.9h-20.3V69H206L206,22.9L206,22.9
			z"/>
		<path id="path3040" inkscape:connector-curvature="0" class="st0" d="M259.5,0h24.1l14.8,24.3L313.2,0h24.1v69h-23V34.8
			l-15.9,24.5H298l-15.9-24.5V69h-22.6L259.5,0L259.5,0z"/>
		<path id="path3042" inkscape:connector-curvature="0" class="st0" d="M348.7,0h23.1v46.2h32.5V69h-55.5V0z"/>
		<polygon id="polygon3044" class="st1" points="255.8,313.6 311.8,313.6 306.5,372.5 255.8,386.2 255.8,433.4 348.9,407.6 
			349.6,400 360.3,280.4 361.4,268.2 349.2,268.2 255.8,268.2 		"/>
		<polygon id="polygon3046" class="st1" points="255.8,221.6 255.8,221.7 365.4,221.7 365.4,221.7 365.5,221.7 366.4,211.5 
			368.5,188.5 369.6,176.3 255.8,176.3 255.8,204.5 		"/>
	</g>
</g>
</svg>
